<svg width="24" height="24" viewBox="0 0 24 24" fill="none" xmlns="http://www.w3.org/2000/svg">
<path fill-rule="evenodd" clip-rule="evenodd" d="M17.552 19.8965H7.78129C6.43546 19.8965 5.34375 18.8048 5.34375 17.459V6.19828C5.34375 4.85245 6.43546 3.76074 7.78129 3.76074H17.552C18.8979 3.76074 19.9896 4.85245 19.9896 6.19828V17.459C19.9896 18.8048 18.8979 19.8965 17.552 19.8965Z" fill="white"/>
<path fill-rule="evenodd" clip-rule="evenodd" d="M17.552 19.8965H7.78129C6.43546 19.8965 5.34375 18.8048 5.34375 17.459V6.19828C5.34375 4.85245 6.43546 3.76074 7.78129 3.76074H17.552C18.8979 3.76074 19.9896 4.85245 19.9896 6.19828V17.459C19.9896 18.8048 18.8979 19.8965 17.552 19.8965Z" stroke="#012A72" stroke-width="1.1875" stroke-linecap="round" stroke-linejoin="round"/>
<path fill-rule="evenodd" clip-rule="evenodd" d="M10.277 16.2008C10.277 16.8642 9.7387 17.4017 9.07529 17.4017C8.41187 17.4017 7.87354 16.8642 7.87354 16.2008C7.87354 15.5366 8.41187 14.999 9.07529 14.999C9.7387 14.999 10.277 15.5366 10.277 16.2008Z" fill="#00B8F5"/>
<path fill-rule="evenodd" clip-rule="evenodd" d="M17.486 16.193C17.486 16.8564 16.9484 17.3947 16.2842 17.3947C15.6208 17.3947 15.0833 16.8564 15.0833 16.193C15.0833 15.5295 15.6208 14.9912 16.2842 14.9912C16.9484 14.9912 17.486 15.5295 17.486 16.193Z" fill="#00B8F5"/>
<path d="M11.6304 6.02865H13.6325" stroke="#012A72" stroke-width="1.1875" stroke-linecap="round" stroke-linejoin="round"/>
<path d="M19.7018 12.638H5.55396" stroke="#012A72" stroke-width="1.1875" stroke-linecap="round" stroke-linejoin="round"/>
<path fill-rule="evenodd" clip-rule="evenodd" d="M9.48765 22.1661H7.86711C7.43011 22.1661 7.07544 21.8122 7.07544 21.3744V19.4443H10.2793V21.3744C10.2793 21.8122 9.92544 22.1661 9.48765 22.1661Z" fill="#012A72"/>
<path fill-rule="evenodd" clip-rule="evenodd" d="M17.4979 22.1666H15.8774C15.4396 22.1666 15.0857 21.8127 15.0857 21.3749V19.7646H18.2896V21.3749C18.2896 21.8127 17.9349 22.1666 17.4979 22.1666Z" fill="#012A72"/>
</svg>
