<svg width="25" height="25" viewBox="0 0 25 25" fill="none" xmlns="http://www.w3.org/2000/svg">
<path fill-rule="evenodd" clip-rule="evenodd" d="M6.34219 15.4521C6.34219 16.2336 5.70394 16.8681 4.91719 16.8681C4.13044 16.8681 3.49219 16.2336 3.49219 15.4521C3.49219 14.6699 4.13044 14.0361 4.91719 14.0361C5.70394 14.0361 6.34219 14.6699 6.34219 15.4521Z" fill="#012A72"/>
<path fill-rule="evenodd" clip-rule="evenodd" d="M20.5951 15.4521C20.5951 16.2336 19.9569 16.8681 19.1701 16.8681C18.3834 16.8681 17.7451 16.2336 17.7451 15.4521C17.7451 14.6699 18.3834 14.0361 19.1701 14.0361C19.9569 14.0361 20.5951 14.6699 20.5951 15.4521Z" fill="#012A72"/>
<path fill-rule="evenodd" clip-rule="evenodd" d="M15.7854 13.3303C15.7854 15.3823 14.1107 17.0465 12.0452 17.0465C9.97895 17.0465 8.3042 15.3823 8.3042 13.3303C8.3042 11.2775 9.97895 9.61328 12.0452 9.61328C14.1107 9.61328 15.7854 11.2775 15.7854 13.3303Z" fill="white"/>
<path fill-rule="evenodd" clip-rule="evenodd" d="M15.7854 13.3303C15.7854 15.3823 14.1107 17.0465 12.0452 17.0465C9.97895 17.0465 8.3042 15.3823 8.3042 13.3303C8.3042 11.2775 9.97895 9.61328 12.0452 9.61328C14.1107 9.61328 15.7854 11.2775 15.7854 13.3303Z" stroke="#012A72" stroke-width="1.10054" stroke-linecap="round" stroke-linejoin="round"/>
<path fill-rule="evenodd" clip-rule="evenodd" d="M9.8938 13.1736C9.8938 11.9931 10.8568 11.0361 12.0448 11.0361C13.2328 11.0361 14.1958 11.9931 14.1958 13.1736" fill="#00B8F5"/>
<path d="M12.0449 5.8125V9.549" stroke="#012A72" stroke-width="1.10054" stroke-linecap="round" stroke-linejoin="round"/>
<path d="M8.35151 14.2168H1.31201" stroke="#012A72" stroke-width="1.10054" stroke-linecap="round" stroke-linejoin="round"/>
<path d="M22.6875 14.2168H15.7192" stroke="#012A72" stroke-width="1.10054" stroke-linecap="round" stroke-linejoin="round"/>
</svg>
