<svg width="24" height="24" viewBox="0 0 24 24" fill="none" xmlns="http://www.w3.org/2000/svg">
<path d="M18.9317 10.3025C18.9317 12.027 18.3094 13.594 17.2747 14.8011C16.0001 16.2931 14.1107 17.2379 11.9964 17.2379H11.9589C9.85954 17.2229 7.98512 16.2857 6.71802 14.8011C5.68334 13.594 5.06104 12.027 5.06104 10.3025C5.06104 8.57806 5.68334 7.01105 6.71802 5.80393C7.98512 4.31939 9.85954 3.38218 11.9589 3.36719H11.9964C14.1107 3.36719 16.0001 4.31189 17.2747 5.80393C18.3094 7.01105 18.9317 8.57806 18.9317 10.3025Z" stroke="#002E6E" stroke-width="1.12465" stroke-miterlimit="10" stroke-linecap="round" stroke-linejoin="round"/>
<path d="M18.9313 10.3025C18.9313 12.027 18.309 13.594 17.2744 14.8011C15.9998 16.2931 14.1103 17.2379 11.996 17.2379C11.3512 16.803 10.7739 16.2931 10.2715 15.7008C9.03443 14.2538 8.28467 12.3719 8.28467 10.3025C8.28467 8.23317 9.03443 6.35126 10.2715 4.90421C10.7739 4.31189 11.3512 3.80205 11.996 3.36719C14.1103 3.36719 15.9998 4.31189 17.2744 5.80393C18.309 7.01105 18.9313 8.57806 18.9313 10.3025Z" stroke="#002E6E" stroke-width="1.12465" stroke-miterlimit="10" stroke-linecap="round" stroke-linejoin="round"/>
<path d="M18.9313 10.3025C18.9313 12.027 18.309 13.594 17.2744 14.8011C15.9998 16.2931 14.1103 17.2379 11.996 17.2379C11.9885 17.2304 11.9885 17.2304 11.981 17.2229C11.3437 16.7955 10.7664 16.2857 10.2715 15.7008C9.03443 14.2538 8.28467 12.3719 8.28467 10.3025C8.28467 8.23317 9.03443 6.35126 10.2715 4.90421C10.7664 4.31939 11.3437 3.80955 11.981 3.38218C11.9885 3.37469 11.9885 3.37469 11.996 3.36719C14.1103 3.36719 15.9998 4.31189 17.2744 5.80393C18.309 7.01105 18.9313 8.57806 18.9313 10.3025Z" stroke="#0CC8F4" stroke-width="1.12465" stroke-miterlimit="10" stroke-linecap="round" stroke-linejoin="round"/>
<path d="M17.3943 6.54688C15.9472 7.78399 14.0653 8.53375 11.996 8.53375C9.92662 8.53375 8.0447 7.78399 6.59766 6.54688" stroke="#0CC8F4" stroke-width="1.12465" stroke-miterlimit="10" stroke-linecap="round" stroke-linejoin="round"/>
<path d="M15.6777 10.3025C15.6777 12.3719 14.928 14.2538 13.6833 15.7008C13.1885 16.2857 12.6112 16.7955 11.9814 17.2229C11.9739 17.2229 11.9664 17.2304 11.9589 17.2379C9.85954 17.2229 7.98512 16.2857 6.71802 14.8011C5.68334 13.594 5.06104 12.027 5.06104 10.3025C5.06104 8.57806 5.68334 7.01105 6.71802 5.80393C7.98512 4.31939 9.85954 3.38218 11.9589 3.36719C11.9664 3.37469 11.9739 3.38218 11.9814 3.38218C12.6112 3.80955 13.1885 4.31939 13.6833 4.90421C14.928 6.35126 15.6777 8.23317 15.6777 10.3025Z" stroke="#0CC8F4" stroke-width="1.12465" stroke-miterlimit="10" stroke-linecap="round" stroke-linejoin="round"/>
<path d="M22.6804 13.0992H17.0722C16.8922 10.9924 15.3852 9.22291 13.3533 8.67558V6.00643C13.3533 5.28665 12.761 4.69434 12.0412 4.69434C11.3215 4.69434 10.7291 5.28665 10.7291 6.00643V8.66808C8.68979 9.21541 7.19025 10.9849 7.01031 13.0917H1.31209C0.592315 13.0992 0 13.684 0 14.4113C0 15.1386 0.592315 15.7234 1.31209 15.7234H2.74414C2.78163 16.878 3.74133 17.8152 4.91846 17.8152C6.0956 17.8152 7.01031 17.6278 7.0553 16.4731L7.31771 16.5706C8.15745 18.2801 10.1143 18.55 12.0487 18.55C13.9831 18.55 16.3299 18.2051 17.1696 16.4956C17.2071 17.6503 17.9944 17.8152 19.1715 17.8152C20.3486 17.8152 21.3008 16.8855 21.3458 15.7234H22.6879C23.4077 15.7234 24 15.1311 24 14.4113C24 13.6915 23.4002 13.0992 22.6804 13.0992Z" fill="white"/>
<path fill-rule="evenodd" clip-rule="evenodd" d="M6.34325 15.6407C6.34325 16.4204 5.70595 17.0577 4.9187 17.0577C4.13144 17.0577 3.49414 16.4204 3.49414 15.6407C3.49414 14.8609 4.13144 14.2236 4.9187 14.2236C5.70595 14.2236 6.34325 14.8609 6.34325 15.6407Z" fill="#07448E"/>
<path fill-rule="evenodd" clip-rule="evenodd" d="M20.5889 15.6407C20.5889 16.4204 19.9516 17.0577 19.1643 17.0577C18.377 17.0577 17.7397 16.4204 17.7397 15.6407C17.7397 14.8609 18.377 14.2236 19.1643 14.2236C19.9516 14.2236 20.5889 14.8609 20.5889 15.6407Z" fill="#07448E"/>
<path fill-rule="evenodd" clip-rule="evenodd" d="M15.7827 13.5265C15.7827 15.5808 14.1107 17.2378 12.0414 17.2378C9.97203 17.2378 8.30005 15.5733 8.30005 13.5265C8.30005 11.4721 9.97203 9.80762 12.0414 9.80762C14.1032 9.80762 15.7827 11.4721 15.7827 13.5265Z" fill="white" stroke="#07448E" stroke-width="1.12465" stroke-linecap="round" stroke-linejoin="round"/>
<path d="M15.7827 13.5265C15.7827 15.5808 14.1107 17.2378 12.0414 17.2378C9.97203 17.2378 8.30005 15.5733 8.30005 13.5265C8.30005 11.4721 9.97203 9.80762 12.0414 9.80762C14.1032 9.80762 15.7827 11.4721 15.7827 13.5265Z" stroke="#07448E" stroke-width="1.12465" stroke-linecap="round" stroke-linejoin="round"/>
<path fill-rule="evenodd" clip-rule="evenodd" d="M9.88965 13.3693C9.88965 12.1921 10.8493 11.2324 12.0415 11.2324C13.2336 11.2324 14.1933 12.1921 14.1933 13.3693" fill="#0CC8F4"/>
<path d="M12.0413 6.00684V9.74065" stroke="#07448E" stroke-width="1.12465" stroke-linecap="round" stroke-linejoin="round"/>
<path d="M8.35231 14.4111H1.31201" stroke="#07448E" stroke-width="1.12465" stroke-linecap="round" stroke-linejoin="round"/>
<path d="M22.6802 14.4111H15.7148" stroke="#07448E" stroke-width="1.12465" stroke-linecap="round" stroke-linejoin="round"/>
</svg>
