<?xml version="1.0" encoding="UTF-8"?><svg id="Layer_2" xmlns="http://www.w3.org/2000/svg" viewBox="0 0 493.8 74.94"><defs><style>.cls-1,.cls-2,.cls-3{stroke-width:0px;}.cls-2{fill:#172b75;}.cls-3{fill:#00bbf0;}</style></defs><g id="Layer_1-2"><path class="cls-3" d="m227.18,24.56c-2.07-5.92-7.71-10.16-14.33-10.16h-.14c-4.31,0-8.19,1.79-10.95,4.67-2.76-2.88-6.64-4.67-10.95-4.67h-.14c-3.79,0-7.24,1.39-9.9,3.68v-1.16c-.09-1.16-1.04-2.08-2.23-2.08h-10.16c-1.24,0-2.25,1.01-2.25,2.25v55.18c0,1.24,1.01,2.25,2.25,2.25h10.16c1.13,0,2.07-.85,2.22-1.94v-39.6c0-.13,0-.27,0-.4.17-1.77,1.46-3.22,3.5-3.4h1.88c.86.07,1.58.37,2.14.83.89.71,1.38,1.78,1.38,2.97l.04,39.41c0,1.24,1.01,2.25,2.25,2.25h10.16c1.2,0,2.18-.95,2.24-2.14v-39.57c-.01-1.31.59-2.48,1.65-3.18.52-.34,1.14-.56,1.87-.63h1.87c2.19.19,3.52,1.86,3.52,3.8l.04,39.36c0,1.24,1.01,2.25,2.25,2.25h10.16c1.24,0,2.25-1.01,2.25-2.25V29.94c0-2.88-.33-4.11-.77-5.38"/><path class="cls-3" d="m158.4,14.98h-5.81V5.57h0v-.02c0-1.14-.92-2.06-2.05-2.06-.13,0-.26.02-.39.04-6.45,1.77-5.15,10.69-16.91,11.45h-1.14c-.17,0-.33.02-.49.06h0,0c-1,.22-1.75,1.12-1.75,2.18v10.16c0,1.24,1.01,2.25,2.25,2.25h6.13v43.08c0,1.23.99,2.23,2.21,2.23h10.05c1.23,0,2.22-1,2.22-2.23V29.64h5.69c1.24,0,2.24-1.01,2.24-2.25v-10.16c0-1.24-1-2.24-2.24-2.24"/><path class="cls-2" d="m121.85,14.98h-10.16c-1.24,0-2.25,1.01-2.25,2.24v21.01c-.02,1.3-1.07,2.34-2.38,2.34h-4.26c-1.32,0-2.38-1.07-2.38-2.38l-.04-20.97c0-1.24-1.01-2.24-2.25-2.24h-10.16c-1.24,0-2.25,1.01-2.25,2.24v23.02c0,8.75,6.24,14.98,14.99,14.98,0,0,6.57,0,6.77.04,1.19.14,2.11,1.13,2.11,2.35s-.9,2.2-2.08,2.35c-.05,0-.11.02-.17.03l-14.86.06c-1.24,0-2.25,1.01-2.25,2.25v10.16c0,1.24,1.01,2.25,2.25,2.25h16.61c8.75,0,14.99-6.23,14.99-14.98V17.23c0-1.24-1-2.24-2.25-2.24"/><path class="cls-2" d="m24.41,14.98H2.2c-1.22,0-2.2.99-2.2,2.2v9.95s0,.04,0,.04c0,.07,0,.12,0,.17v45.05c0,1.23.92,2.22,2.05,2.25h10.35c1.24,0,2.25-1.01,2.25-2.25l.04-15.44h9.72c8.13,0,13.8-5.64,13.8-13.81v-14.33c0-8.17-5.67-13.83-13.8-13.83m-.89,18.62v6.27c0,1.31-1.07,2.38-2.38,2.38h-6.45s0-12.56,0-12.56h6.45c1.31,0,2.38,1.07,2.38,2.38v1.53Z"/><path class="cls-2" d="m64.05,15.04h-14.09c-1.25,0-2.26.95-2.26,2.11v4.03s0,.05,0,.05v5.44c0,1.23,1.07,2.23,2.4,2.23h13.42c1.06.17,1.9.94,2.02,2.15v1.31c-.12,1.15-.95,1.99-1.96,2.09h-6.64c-8.84,0-15.14,5.87-15.14,14.12v11.82c0,8.2,5.41,14.03,14.19,14.03h18.43c3.31,0,5.98-2.5,5.98-5.59V30.29c0-9.35-4.82-15.25-16.33-15.25m1.62,42.41v1.59c0,.13-.02.25-.04.37-.02.11-.05.22-.09.33h0c-.32.89-1.2,1.53-2.26,1.53h-4.23c-1.32,0-2.39-1-2.39-2.23v-1.99s0-5.1,0-5.1h0v-1.59h0c0-1.24,1.08-2.24,2.39-2.24h4.23c1.32,0,2.4,1,2.4,2.24v7.1Z"/><path class="cls-1" d="m273.17,28.51h-10.91v28.58c0,5.25,2.63,6.41,5.9,6.41,1.62,0,3.1-.32,3.82-.5l2.2,10.19c-1.4.47-3.96,1.19-7.67,1.3-9.79.29-17.35-4.82-17.28-15.23v-30.74h-7.85v-10.08h7.85V5.18h13.03v13.25h10.91v10.08Z"/><path class="cls-1" d="m281.03,18.43h12.63v9.21h.58c2.02-6.41,7.31-10.01,13.64-10.01,1.44,0,3.49.14,4.68.36v11.99c-1.12-.36-3.85-.76-6.05-.76-7.16,0-12.45,4.97-12.45,11.99v32.5h-13.03V18.43Z"/><path class="cls-1" d="m314.55,58.2c0-12.45,10.26-15.66,20.98-16.81,9.75-1.04,13.68-1.22,13.68-4.97v-.22c0-5.43-3.31-8.53-9.36-8.53-6.37,0-10.04,3.24-11.34,7.02l-12.17-1.73c2.88-10.08,11.81-15.26,23.43-15.26,10.55,0,22.46,4.39,22.46,19v37h-12.53v-7.59h-.43c-2.38,4.64-7.56,8.71-16.23,8.71-10.55,0-18.5-5.76-18.5-16.63Zm34.7-4.32v-6.51c-1.69,1.37-8.53,2.23-11.95,2.7-5.83.83-10.19,2.92-10.19,7.92s3.89,7.27,9.32,7.27c7.85,0,12.81-5.22,12.81-11.37Z"/><path class="cls-1" d="m400.01,73.71h-14.4l-19.69-55.29h13.89l12.71,41.07h.58l12.74-41.07h13.86l-19.69,55.29Z"/><path class="cls-1" d="m421.37,46.4c0-17.06,10.33-28.69,26.17-28.69,13.61,0,25.27,8.53,25.27,27.93v4h-38.51c.11,9.47,5.69,15.01,14.11,15.01,5.62,0,9.93-2.45,11.7-7.13l12.17,1.37c-2.3,9.61-11.16,15.91-24.04,15.91-16.66,0-26.85-11.05-26.85-28.4Zm38.94-5.54c-.07-7.52-5.11-12.99-12.6-12.99s-12.99,5.94-13.39,12.99h25.99Z"/><path class="cls-1" d="m493.8,73.71h-13.03V0h13.03v73.71Z"/></g></svg>