<svg width="36" height="36" viewBox="0 0 36 36" fill="none" xmlns="http://www.w3.org/2000/svg">
<path d="M7.98448 10.0216C7.85725 7.72888 9.68209 5.79996 11.9783 5.79996H24.0221C26.3183 5.79996 28.1432 7.72888 28.0159 10.0216L27.5533 18.3583C27.2719 23.4287 23.0784 27.396 18.0002 27.396C12.922 27.396 8.72849 23.4287 8.44712 18.3583L7.98448 10.0216Z" fill="white"/>
<path d="M8.35713 9.9729L9.02135 21.9893L11.1949 24.133L16.0832 27.4573C16.0832 27.4573 11.3264 21.8131 10.3264 14.8131C9.32638 7.81309 11.8426 5.80735 11.8426 5.80735L8.94333 7.62246L8.35713 9.9729Z" fill="#00B8F5"/>
<path d="M28.0525 9.9729L27.3882 21.9893L25.2146 24.133L20.3264 27.4573C20.3264 27.4573 25.0832 21.8131 26.0832 14.8131C27.0832 7.81309 24.567 5.80735 24.567 5.80735L27.4663 7.62246L28.0525 9.9729Z" fill="#00B8F5"/>
<path d="M7.98448 10.0216C7.85725 7.72888 9.68209 5.79996 11.9783 5.79996H24.0221C26.3183 5.79996 28.1432 7.72888 28.0159 10.0216L27.5533 18.3583C27.2719 23.4287 23.0784 27.396 18.0002 27.396V27.396C12.922 27.396 8.72849 23.4287 8.44712 18.3583L7.98448 10.0216Z" stroke="#012A72" stroke-width="1.5" stroke-linejoin="round"/>
<path d="M20.0002 7.40696H16.0002C15.4502 7.40696 15.0002 6.95696 15.0002 6.40696C15.0002 5.85696 15.4502 5.40696 16.0002 5.40696H20.0002C20.5502 5.40696 21.0002 5.85696 21.0002 6.40696C21.0002 6.96696 20.5502 7.40696 20.0002 7.40696Z" fill="#012A72"/>
<path d="M8.61056 30.1558H27.389" stroke="#012A72" stroke-width="1.5" stroke-linejoin="round"/>
<path d="M11.3527 10.1372C11.2977 9.55063 11.7592 9.04386 12.3484 9.04386H23.6521C24.2412 9.04386 24.7027 9.55063 24.6477 10.1372L24.2726 14.1372C24.2245 14.6511 23.7931 15.0439 23.277 15.0439H12.7234C12.2073 15.0439 11.7759 14.6511 11.7278 14.1372L11.3527 10.1372Z" stroke="#012A72" stroke-width="1.5" stroke-linejoin="round"/>
<path d="M19.6004 17.8131H17.3264" stroke="#012A72" stroke-width="1.5" stroke-linecap="round" stroke-linejoin="round"/>
<path d="M24.1953 25.2316L28.8786 31.9149" stroke="#012A72" stroke-width="1.5" stroke-miterlimit="10" stroke-linecap="round" stroke-linejoin="round"/>
<path d="M11.8316 25.2316L7.12109 31.9299" stroke="#012A72" stroke-width="1.5" stroke-miterlimit="10" stroke-linecap="round" stroke-linejoin="round"/>
</svg>
