<svg width="16" height="20" viewBox="0 0 16 20" fill="none" xmlns="http://www.w3.org/2000/svg">
<path fill-rule="evenodd" clip-rule="evenodd" d="M8.45056 0.239893C8.6605 -0.0429574 9.03492 -0.0811734 9.28685 0.154536L15.6563 6.1139C16.3389 6.75258 15.9366 8 15.0481 8H0.593781C0.265845 8 0 7.70152 0 7.33333C0 6.96515 0.265845 6.66667 0.593781 6.66667H14.392L8.52659 1.17883C8.27466 0.94312 8.24062 0.522744 8.45056 0.239893Z" fill="#101010" fill-opacity="0.54"/>
<path fill-rule="evenodd" clip-rule="evenodd" d="M7.54944 19.7601C7.3395 20.043 6.96508 20.0812 6.71315 19.8455L0.343737 13.8861C-0.338888 13.2474 0.063365 12 0.951943 12L15.4062 12C15.7342 12 16 12.2985 16 12.6667C16 13.0349 15.7342 13.3333 15.4062 13.3333L1.60796 13.3333L7.47341 18.8212C7.72534 19.0569 7.75938 19.4773 7.54944 19.7601Z" fill="#101010" fill-opacity="0.54"/>
</svg>
